<?xml version="1.0" encoding="UTF-8" standalone="no"?><!DOCTYPE svg PUBLIC "-//W3C//DTD SVG 1.1//EN" "http://www.w3.org/Graphics/SVG/1.1/DTD/svg11.dtd"><svg width="100%" height="100%" viewBox="0 0 79 100" version="1.1" xmlns="http://www.w3.org/2000/svg" xmlns:xlink="http://www.w3.org/1999/xlink" xml:space="preserve" xmlns:serif="http://www.serif.com/" style="fill-rule:evenodd;clip-rule:evenodd;stroke-linejoin:round;stroke-miterlimit:1.41421;"><path d="M34.785,78.267l0,18.48c0,0 -0.538,2.693 -2.489,3.169c-1.083,0.264 -2.243,-0.11 -3.078,-0.863l-21.741,-21.741c-0.919,-1.014 -0.896,-1.109 -0.955,-2.306l0,-55.997c-3.798,-1.344 -6.522,-4.969 -6.522,-9.226c0,-5.399 4.384,-9.783 9.783,-9.783c5.4,0 9.784,4.384 9.784,9.783c0,4.257 -2.724,7.882 -6.522,9.226l0,54.646l15.218,15.219l0,-13.868c0.086,-1.75 1.485,-3.174 3.261,-3.261l40.221,0l0,-38.87l-19.831,-19.83l-20.345,0c-0.011,-0.003 -2.886,-0.564 -3.223,-2.768c-0.282,-1.839 1.294,-3.657 3.223,-3.755l21.696,0c1.367,0.067 1.418,0.151 2.306,0.955l21.741,21.741c0.919,1.014 0.897,1.109 0.955,2.306l0,43.482c-0.086,1.748 -1.485,3.174 -3.261,3.261l-40.221,0Zm-25.002,-71.745c1.8,0 3.262,1.462 3.262,3.261c0,1.8 -1.462,3.262 -3.262,3.262c-1.799,0 -3.261,-1.462 -3.261,-3.262c0,-1.799 1.462,-3.261 3.261,-3.261Z"/></svg>